<?xml version="1.0" standalone="no"?>
<!DOCTYPE svg PUBLIC "-//W3C//DTD SVG 20010904//EN"
 "http://www.w3.org/TR/2001/REC-SVG-20010904/DTD/svg10.dtd">
<svg version="1.0" xmlns="http://www.w3.org/2000/svg"
 width="1200.000000pt" height="1200.000000pt" viewBox="0 0 1200.000000 1200.000000"
 preserveAspectRatio="xMidYMid meet">
<metadata>
Created by potrace 1.11, written by Peter Selinger 2001-2013
</metadata>
<g transform="translate(0.000000,1200.000000) scale(0.100000,-0.100000)"
fill="#000000" stroke="none">
<path d="M4315 11190 c-500 -7 -528 -10 -728 -71 -335 -103 -647 -289 -884
-529 -183 -185 -141 -115 -1228 -2010 -345 -602 -701 -1221 -790 -1376 -90
-154 -174 -303 -188 -330 -83 -165 -155 -415 -182 -634 -24 -182 -17 -494 14
-659 26 -139 79 -306 135 -426 23 -49 187 -337 363 -640 407 -698 786 -1353
1183 -2045 172 -300 348 -605 390 -678 103 -178 176 -277 295 -397 122 -123
212 -191 386 -296 234 -141 454 -233 652 -273 171 -35 304 -37 2322 -33 1802
3 1999 5 2084 20 347 61 712 227 983 445 97 79 226 216 301 320 67 93 260 423
1020 1742 302 525 647 1122 765 1325 308 528 359 638 415 896 41 186 51 289
51 549 1 273 -11 351 -79 556 -46 138 -90 223 -354 683 -126 218 -369 641
-541 941 -621 1083 -1159 1990 -1258 2122 -294 392 -648 635 -1082 742 -248
61 -182 59 -1960 61 -894 1 -1832 -1 -2085 -5z m333 -3139 c59 -30 129 -102
155 -159 16 -36 22 -66 22 -128 0 -70 -4 -87 -30 -137 -23 -42 -214 -251 -770
-838 -407 -430 -740 -785 -740 -789 0 -4 330 -356 734 -783 403 -427 744 -791
756 -809 55 -81 69 -190 36 -277 -67 -178 -264 -257 -437 -175 -59 28 -57 26
-1278 1317 -575 609 -570 602 -570 729 0 127 -25 97 921 1097 469 494 867 911
886 925 56 43 104 56 192 53 59 -3 92 -10 123 -26z m2943 14 c23 -9 58 -27 76
-41 18 -14 417 -430 886 -925 949 -1003 920 -968 920 -1099 0 -131 29 -96
-919 -1097 -468 -494 -865 -910 -882 -925 -46 -39 -97 -53 -187 -52 -98 0
-154 23 -220 89 -67 67 -89 122 -90 221 0 70 4 87 30 137 23 43 213 250 770
839 407 430 740 784 740 788 0 4 -330 356 -734 783 -403 427 -744 791 -756
809 -96 142 -60 331 80 428 25 17 62 37 83 45 50 18 150 18 203 0z m-1115 -6
c76 -14 147 -53 186 -102 46 -57 77 -142 78 -208 0 -67 -839 -3568 -871 -3636
-43 -89 -133 -153 -243 -174 -50 -9 -67 -8 -124 10 -144 44 -232 156 -232 297
0 36 138 625 420 1801 231 961 427 1771 435 1800 20 68 79 141 143 176 43 23
68 31 143 46 3 1 32 -4 65 -10z"/>
</g>
</svg>
